<svg width="21" height="21" viewBox="0 0 21 21" fill="none" xmlns="http://www.w3.org/2000/svg">
<path d="M18.6488 0C19.2671 0 19.86 0.245598 20.2972 0.682766C20.7343 1.11993 20.9799 1.71286 20.9799 2.33111V18.6489C20.9799 19.2671 20.7343 19.8601 20.2972 20.2972C19.86 20.7344 19.2671 20.98 18.6488 20.98H2.33105C1.7128 20.98 1.11987 20.7344 0.682705 20.2972C0.245537 19.8601 -6.10352e-05 19.2671 -6.10352e-05 18.6489V2.33111C-6.10352e-05 1.71286 0.245537 1.11993 0.682705 0.682766C1.11987 0.245598 1.7128 0 2.33105 0H18.6488ZM18.066 18.0661V11.8887C18.066 10.8809 17.6657 9.91445 16.9531 9.20186C16.2406 8.48928 15.2741 8.08895 14.2663 8.08895C13.2756 8.08895 12.1217 8.69504 11.5622 9.60418V8.31041H8.31035V18.0661H11.5622V12.3199C11.5622 11.4224 12.2849 10.6881 13.1824 10.6881C13.6151 10.6881 14.0302 10.8601 14.3362 11.1661C14.6422 11.4721 14.8141 11.8871 14.8141 12.3199V18.0661H18.066ZM4.52229 6.48049C5.04162 6.48049 5.53968 6.27419 5.9069 5.90696C6.27413 5.53974 6.48043 5.04168 6.48043 4.52236C6.48043 3.43839 5.60626 2.55257 4.52229 2.55257C3.99987 2.55257 3.49885 2.7601 3.12944 3.1295C2.76004 3.49891 2.55251 3.99993 2.55251 4.52236C2.55251 5.60632 3.43833 6.48049 4.52229 6.48049ZM6.14242 18.0661V8.31041H2.91383V18.0661H6.14242Z" fill="#F8F8F8"/>
</svg>
