<svg width="17" height="21" viewBox="0 0 17 21" fill="none" xmlns="http://www.w3.org/2000/svg">
<path d="M4.97005 0.821635C5.52141 0.6554 6.11306 0.683017 6.64653 0.89989C7.18001 1.11676 7.62311 1.50981 7.90207 2.0136L7.99531 2.20133L8.82943 4.05479C9.08258 4.61736 9.16475 5.24194 9.06573 5.85084C8.96671 6.45975 8.69087 7.0261 8.27251 7.47947L8.10493 7.64579L6.79075 8.87177C6.55387 9.09605 6.73153 9.96419 7.58833 11.4485C8.35945 12.7841 8.98693 13.4078 9.29563 13.4418H9.34981L9.41659 13.4292L11.9996 12.6392C12.3467 12.5327 12.7172 12.5285 13.0667 12.627C13.4161 12.7256 13.7298 12.9227 13.9702 13.1948L14.0849 13.3397L15.7947 15.7085C16.1298 16.1728 16.2968 16.7374 16.2682 17.3093C16.2395 17.8812 16.017 18.4262 15.6372 18.8548L15.4835 19.0135L14.8006 19.6612C14.1873 20.2419 13.4202 20.6344 12.5904 20.7918C11.7606 20.9493 10.903 20.8652 10.1197 20.5495C7.68157 19.5667 5.46649 17.3213 3.45427 13.8362C1.43827 10.3422 0.600373 7.29677 0.974593 4.68857C1.08783 3.90015 1.41249 3.15712 1.91409 2.53838C2.41569 1.91964 3.0755 1.44831 3.82345 1.17444L4.06663 1.0938L4.97005 0.821635Z" fill="#F8F8F8"/>
</svg>
